<?xml version="1.0" encoding="UTF-8" standalone="no"?>
<!-- Created with Inkscape (http://www.inkscape.org/) -->

<svg
  version="1.1"
  id="svg2742"
  xml:space="preserve"
  width="682.66669"
  height="682.66669"
  viewBox="0 0 682.66669 682.66669"
  xmlns="http://www.w3.org/2000/svg"
  xmlns:svg="http://www.w3.org/2000/svg"><defs
     id="defs2746"><clipPath
       clipPathUnits="userSpaceOnUse"
       id="clipPath2756"><path
         d="M 0,512 H 512 V 0 H 0 Z"
         id="path2754" /></clipPath></defs><g
     id="g2748"
     transform="matrix(1.3333333,0,0,-1.3333333,0,682.66667)"><g
       id="g2750"><g
         id="g2752"
         clip-path="url(#clipPath2756)"><g
           id="g2758"
           transform="translate(301.2042,206.8316)"><path
             d="m 0,0 h 139.04 c 34.221,0 61.963,27.724 61.963,61.924 0,25.971 -16.004,48.194 -38.689,57.391 0.985,4.384 1.522,8.937 1.522,13.618 0,34.2 -27.742,61.924 -61.963,61.924 -2.228,0 -4.424,-0.13 -6.59,-0.359 -21.59,58.752 -78.039,100.665 -144.279,100.665 -74.187,0 -136.093,-52.573 -150.501,-122.494 -1.666,0.096 -3.341,0.16 -5.031,0.16 -47.755,0 -86.469,-38.689 -86.469,-86.415 0,-47.725 38.714,-86.414 86.469,-86.414 h 114.53"
             style="fill:none;stroke:#5f8FEE;stroke-width:20;stroke-linecap:round;stroke-linejoin:round;stroke-miterlimit:10;stroke-dasharray:none;stroke-opacity:1"
             id="path2760" /></g><g
           id="g2762"
           transform="translate(96.6765,379.6605)"><path
             d="M 0,0 C 22.05,0 42.173,-8.248 57.447,-21.826"
             style="fill:none;stroke:#5f8FEE;stroke-width:20;stroke-linecap:round;stroke-linejoin:round;stroke-miterlimit:10;stroke-dasharray:none;stroke-opacity:1"
             id="path2764" /></g><g
           id="g2766"
           transform="translate(76.8742,162.4983)"><path
             d="M 0,0 V -56.667"
             style="fill:none;stroke:#5f8FEE;stroke-width:20;stroke-linecap:round;stroke-linejoin:round;stroke-miterlimit:10;stroke-dasharray:none;stroke-opacity:1"
             id="path2768" /></g><g
           id="g2770"
           transform="translate(148.8742,162.4983)"><path
             d="M 0,0 V -77.793"
             style="fill:none;stroke:#5f8FEE;stroke-width:20;stroke-linecap:round;stroke-linejoin:round;stroke-miterlimit:10;stroke-dasharray:none;stroke-opacity:1"
             id="path2772" /></g><g
           id="g2774"
           transform="translate(220.8742,162.4983)"><path
             d="M 0,0 V -20.75"
             style="fill:none;stroke:#5f8FEE;stroke-width:20;stroke-linecap:round;stroke-linejoin:round;stroke-miterlimit:10;stroke-dasharray:none;stroke-opacity:1"
             id="path2776" /></g><g
           id="g2778"
           transform="translate(292.8742,162.4983)"><path
             d="M 0,0 V -68.836"
             style="fill:none;stroke:#5f8FEE;stroke-width:20;stroke-linecap:round;stroke-linejoin:round;stroke-miterlimit:10;stroke-dasharray:none;stroke-opacity:1"
             id="path2780" /></g><g
           id="g2782"
           transform="translate(364.8742,162.4983)"><path
             d="M 0,0 V -52.998"
             style="fill:none;stroke:#5f8FEE;stroke-width:20;stroke-linecap:round;stroke-linejoin:round;stroke-miterlimit:10;stroke-dasharray:none;stroke-opacity:1"
             id="path2784" /></g><g
           id="g2786"
           transform="translate(364.8742,65.8316)"><path
             d="M 0,0 V -55.832"
             style="fill:none;stroke:#5f8FEE;stroke-width:20;stroke-linecap:round;stroke-linejoin:round;stroke-miterlimit:10;stroke-dasharray:none;stroke-opacity:1"
             id="path2788" /></g><g
           id="g2790"
           transform="translate(148.8742,41.0368)"><path
             d="M 0,0 V -31.037"
             style="fill:none;stroke:#5f8FEE;stroke-width:20;stroke-linecap:round;stroke-linejoin:round;stroke-miterlimit:10;stroke-dasharray:none;stroke-opacity:1"
             id="path2792" /></g><g
           id="g2794"
           transform="translate(220.8742,98.0795)"><path
             d="M 0,0 V -34.085"
             style="fill:none;stroke:#5f8FEE;stroke-width:20;stroke-linecap:round;stroke-linejoin:round;stroke-miterlimit:10;stroke-dasharray:none;stroke-opacity:1"
             id="path2796" /></g><g
           id="g2798"
           transform="translate(292.8742,49.9941)"><path
             d="M 0,0 V -16.333"
             style="fill:none;stroke:#5f8FEE;stroke-width:20;stroke-linecap:round;stroke-linejoin:round;stroke-miterlimit:10;stroke-dasharray:none;stroke-opacity:1"
             id="path2800" /></g><g
           id="g2802"
           transform="translate(436.8742,162.4983)"><path
             d="M 0,0 V -56.667"
             style="fill:none;stroke:#5f8FEE;stroke-width:20;stroke-linecap:round;stroke-linejoin:round;stroke-miterlimit:10;stroke-dasharray:none;stroke-opacity:1"
             id="path2804" /></g><g
           id="g2806"
           transform="translate(256.2075,206.8316)"><path
             d="M 0,0 V 0"
             style="fill:none;stroke:#5f8FEE;stroke-width:20;stroke-linecap:round;stroke-linejoin:round;stroke-miterlimit:10;stroke-dasharray:none;stroke-opacity:1"
             id="path2808" /></g></g></g></g></svg>